<svg width="34" height="34" viewBox="0 0 34 34" fill="none" xmlns="http://www.w3.org/2000/svg">
<path d="M22.0313 18.4111L19.1837 21.2683C18.029 22.4271 15.9972 22.4521 14.8175 21.2683L11.9698 18.4111L1.74219 28.672C2.12289 28.848 2.54265 28.9531 2.9889 28.9531H31.0123C31.4586 28.9531 31.8782 28.8481 32.2588 28.672L22.0313 18.4111Z" fill="#4039A1"/>
<path d="M31.0122 5.04688H2.98877C2.54252 5.04688 2.12276 5.15193 1.74219 5.32797L12.6711 16.2932C12.6719 16.2939 12.6727 16.294 12.6735 16.2948C12.6742 16.2955 12.6743 16.2965 12.6743 16.2965L16.2279 19.8618C16.6054 20.2393 17.3957 20.2393 17.7732 19.8618L21.3261 16.2971C21.3261 16.2971 21.3269 16.2955 21.3277 16.2948C21.3277 16.2948 21.3292 16.2939 21.33 16.2932L32.2587 5.32791C31.8781 5.1518 31.4585 5.04688 31.0122 5.04688Z" fill="#4039A1"/>
<path d="M0.31782 6.72119C0.120859 7.1195 0 7.56163 0 8.03524V25.9649C0 26.4385 0.120727 26.8807 0.317754 27.279L10.5631 17.0004L0.31782 6.72119Z" fill="#4039A1"/>
<path d="M33.6827 6.72119L23.4375 17.0006L33.6827 27.2792C33.8797 26.8809 34.0005 26.4388 34.0005 25.9651V8.03537C34.0005 7.56163 33.8797 7.1195 33.6827 6.72119Z" fill="#4039A1"/>
</svg>
