<svg width="23" height="22" viewBox="0 0 23 22" fill="none" xmlns="http://www.w3.org/2000/svg">
<g clip-path="url(#clip0_97_859)">
<path d="M16.7246 0.130371H6.75469C3.50988 0.130371 0.870117 2.77014 0.870117 6.01495V15.9851C0.870117 19.2297 3.50988 21.8695 6.75469 21.8695H16.7248C19.9694 21.8695 22.6092 19.2297 22.6092 15.9851V6.01495C22.6092 2.77014 19.9694 0.130371 16.7246 0.130371V0.130371ZM11.7397 16.944C8.46201 16.944 5.79555 14.2776 5.79555 10.9999C5.79555 7.72227 8.46201 5.0558 11.7397 5.0558C15.0173 5.0558 17.6838 7.72227 17.6838 10.9999C17.6838 14.2776 15.0173 16.944 11.7397 16.944ZM17.8259 6.45761C16.8573 6.45761 16.0695 5.6698 16.0695 4.7012C16.0695 3.7326 16.8573 2.94462 17.8259 2.94462C18.7945 2.94462 19.5825 3.7326 19.5825 4.7012C19.5825 5.6698 18.7945 6.45761 17.8259 6.45761Z" fill="#C33677"/>
<path d="M11.739 6.32935C9.16426 6.32935 7.06934 8.42411 7.06934 10.999C7.06934 13.5738 9.16426 15.6687 11.739 15.6687C14.3139 15.6687 16.4087 13.5738 16.4087 10.999C16.4087 8.42411 14.3139 6.32935 11.739 6.32935Z" fill="#C33677"/>
<path d="M17.8267 4.21924C17.561 4.21924 17.3447 4.43551 17.3447 4.70122C17.3447 4.96692 17.561 5.18319 17.8267 5.18319C18.0926 5.18319 18.3089 4.96708 18.3089 4.70122C18.3089 4.43535 18.0926 4.21924 17.8267 4.21924Z" fill="#C33677"/>
</g>
<defs>
<clipPath id="clip0_97_859">
<rect width="21.7391" height="21.7391" fill="white" transform="translate(0.870117 0.130371)"/>
</clipPath>
</defs>
</svg>
