<svg width="26" height="26" viewBox="0 0 26 26" fill="none" xmlns="http://www.w3.org/2000/svg">
<g clip-path="url(#clip0_97_333)">
<path d="M2.06259 3.68561C3.40849 2.22585 5.25526 1.42188 7.26311 1.42188C8.76393 1.42188 10.1384 1.89636 11.3484 2.83205C11.959 3.30435 12.5122 3.88219 13 4.55663C13.4876 3.88239 14.041 3.30435 14.6518 2.83205C15.8616 1.89636 17.2361 1.42188 18.7369 1.42188C20.7447 1.42188 22.5917 2.22585 23.9376 3.68561C25.2674 5.12831 26 7.09926 26 9.23564C26 11.4345 25.1806 13.4473 23.4213 15.5702C21.8474 17.4691 19.5855 19.3969 16.9661 21.629C16.0717 22.3914 15.0578 23.2554 14.0051 24.1758C13.727 24.4194 13.3701 24.5535 13 24.5535C12.6301 24.5535 12.273 24.4194 11.9953 24.1762C10.9426 23.2556 9.92813 22.3912 9.03331 21.6284C6.41431 19.3967 4.15236 17.4691 2.57854 15.57C0.819244 13.4473 0 11.4345 0 9.23544C0 7.09926 0.732559 5.12831 2.06259 3.68561Z" fill="white"/>
</g>
<defs>
<clipPath id="clip0_97_333">
<rect width="26" height="26" fill="white" transform="matrix(-1 0 0 1 26 0)"/>
</clipPath>
</defs>
</svg>
