<svg width="28" height="28" viewBox="0 0 28 28" fill="none" xmlns="http://www.w3.org/2000/svg">
<path d="M8.37531 16.3929C10.1607 16.3929 11.608 17.8403 11.608 19.6257C11.608 21.4111 10.1607 22.8584 8.37531 22.8584C6.58992 22.8584 5.14258 21.4111 5.14258 19.6257C5.14258 17.8403 6.58992 16.3929 8.37531 16.3929Z" fill="#272727"/>
<path d="M8.37531 5.14197C10.1607 5.14197 11.608 6.58931 11.608 8.37469C11.608 10.1601 10.1607 11.6074 8.37531 11.6074C6.58992 11.6074 5.14258 10.1601 5.14258 8.37469C5.14258 6.58931 6.58992 5.14197 8.37531 5.14197Z" fill="#272727"/>
<path d="M19.6253 16.3929C21.4107 16.3929 22.858 17.8403 22.858 19.6257C22.858 21.4111 21.4107 22.8584 19.6253 22.8584C17.8399 22.8584 16.3926 21.4111 16.3926 19.6257C16.3926 17.8403 17.8399 16.3929 19.6253 16.3929Z" fill="#272727"/>
<path d="M19.6253 5.14197C21.4107 5.14197 22.858 6.58931 22.858 8.37469C22.858 10.1601 21.4107 11.6074 19.6253 11.6074C17.8399 11.6074 16.3926 10.1601 16.3926 8.37469C16.3926 6.58931 17.8399 5.14197 19.6253 5.14197Z" fill="#272727"/>
</svg>
