<svg width="39" height="39" viewBox="0 0 39 39" fill="none" xmlns="http://www.w3.org/2000/svg">
<path d="M30.3247 16.2709L12.4497 6.18618C11.866 5.85258 11.2043 5.67954 10.5319 5.68468C9.8596 5.68982 9.20063 5.87294 8.62204 6.21543C8.05835 6.53782 7.59003 7.00366 7.26467 7.56563C6.9393 8.12761 6.76847 8.76569 6.76954 9.41505V29.5845C6.76847 30.2339 6.9393 30.872 7.26467 31.434C7.59003 31.9959 8.05835 32.4618 8.62204 32.7842C9.20068 33.1265 9.85964 33.3095 10.5319 33.3147C11.2042 33.3198 11.8659 33.1469 12.4497 32.8134L30.3247 22.7287C30.9012 22.4093 31.3817 21.9415 31.7163 21.3737C32.0508 20.8059 32.2273 20.1588 32.2273 19.4998C32.2273 18.8408 32.0508 18.1937 31.7163 17.6259C31.3817 17.0581 30.9012 16.5903 30.3247 16.2709Z" fill="white"/>
</svg>
