<svg width="25" height="25" viewBox="0 0 25 25" fill="none" xmlns="http://www.w3.org/2000/svg">
<g clip-path="url(#clip0_1280_3163)">
<path d="M8.83789 21.289C8.83789 22.5006 9.82357 23.4863 11.0351 23.4863C12.2467 23.4863 13.2324 22.5006 13.2324 21.289C13.2324 20.0775 12.2467 19.0918 11.0351 19.0918C9.82357 19.0918 8.83789 20.0775 8.83789 21.289ZM11.0351 20.5566C11.439 20.5566 11.7675 20.8852 11.7675 21.289C11.7675 21.6929 11.439 22.0214 11.0351 22.0214C10.6313 22.0214 10.3027 21.6929 10.3027 21.289C10.3027 20.8852 10.6313 20.5566 11.0351 20.5566Z" fill="#242424"/>
<path d="M16.2109 21.289C16.2109 22.5006 17.1966 23.4863 18.4082 23.4863C19.6197 23.4863 20.6054 22.5006 20.6054 21.289C20.6054 20.0775 19.6197 19.0918 18.4082 19.0918C17.1966 19.0918 16.2109 20.0775 16.2109 21.289ZM18.4082 20.5566C18.812 20.5566 19.1406 20.8852 19.1406 21.289C19.1406 21.6929 18.812 22.0214 18.4082 22.0214C18.0043 22.0214 17.6758 21.6929 17.6758 21.289C17.6758 20.8852 18.0043 20.5566 18.4082 20.5566Z" fill="#242424"/>
<path d="M24.2672 4.44331H5.72828C5.4775 3.56545 5.24381 2.74749 5.04309 2.04491C4.95329 1.73047 4.66584 1.51367 4.33885 1.51367H0.73241C0.327925 1.51367 0 1.8416 0 2.24608C0 2.65057 0.327925 2.97849 0.73241 2.97849H3.78637C4.6054 5.84544 6.52011 12.5471 7.32283 15.3567L7.04535 15.9116C6.31416 17.3742 7.37903 19.0915 9.01065 19.0915H21.3376C21.742 19.0915 22.07 18.7636 22.07 18.3591C22.07 17.9546 21.742 17.6267 21.3376 17.6267H9.01065C8.46593 17.6267 8.11218 17.0536 8.35553 16.5668L8.55797 16.1619H21.3376C21.6646 16.1619 21.952 15.9451 22.0418 15.6307L24.9714 5.37694C25.1049 4.90991 24.754 4.44331 24.2672 4.44331ZM20.7851 14.6971H8.65782C8.25876 13.3003 7.14188 9.39123 6.14678 5.90813H23.2963L20.7851 14.6971Z" fill="#242424"/>
</g>
<defs>
<clipPath id="clip0_1280_3163">
<rect width="25" height="25" fill="white"/>
</clipPath>
</defs>
</svg>
