<svg width="17" height="17" viewBox="0 0 17 17" fill="none" xmlns="http://www.w3.org/2000/svg">
<path d="M3.14516 15.9375H9.85485C10.9397 15.9375 11.847 15.1247 11.9666 14.0468L12.8718 5.90219C12.8888 5.75184 12.8405 5.60203 12.7395 5.48941C12.6391 5.37678 12.4952 5.3125 12.3438 5.3125H9.6875V4.25C9.6875 2.49209 8.25791 1.0625 6.5 1.0625C4.74209 1.0625 3.3125 2.49209 3.3125 4.25V5.3125H0.656251C0.504845 5.3125 0.360876 5.37678 0.26047 5.48941C0.159532 5.60203 0.11172 5.75237 0.128188 5.90219L1.03291 14.0468C1.15297 15.1247 2.06088 15.9375 3.14516 15.9375ZM4.375 4.25C4.375 3.07806 5.32806 2.125 6.5 2.125C7.67194 2.125 8.625 3.07806 8.625 4.25V5.3125H4.375V4.25ZM3.3125 6.375V7.4375C3.01925 7.4375 2.78125 7.6755 2.78125 7.96875C2.78125 8.262 3.01925 8.5 3.3125 8.5H4.375C4.66825 8.5 4.90625 8.262 4.90625 7.96875C4.90625 7.6755 4.66825 7.4375 4.375 7.4375V6.375H8.625V7.4375C8.33175 7.4375 8.09375 7.6755 8.09375 7.96875C8.09375 8.262 8.33175 8.5 8.625 8.5H9.6875C9.98075 8.5 10.2188 8.262 10.2188 7.96875C10.2188 7.6755 9.98075 7.4375 9.6875 7.4375V6.375H11.7503L10.9104 13.9299C10.8509 14.4686 10.3967 14.875 9.85485 14.875H3.14516C2.60275 14.875 2.14906 14.4686 2.08903 13.9299L1.24966 6.375H3.3125Z" fill="white"/>
</svg>
