<svg width="22" height="22" viewBox="0 0 22 22" fill="none" xmlns="http://www.w3.org/2000/svg">
<g clip-path="url(#clip0_97_873)">
<path d="M20.3938 5.58175C19.1532 5.58175 18.0085 5.17075 17.0892 4.47739C16.035 3.68255 15.2775 2.51662 15.01 1.17279C14.9438 0.840756 14.9081 0.49811 14.9047 0.146973H11.3606V9.83107L11.3564 15.1355C11.3564 16.5536 10.4329 17.7561 9.15274 18.179C8.78122 18.3017 8.37998 18.3599 7.96218 18.3369C7.42889 18.3076 6.92915 18.1467 6.49479 17.8869C5.57045 17.334 4.94375 16.3312 4.92677 15.1839C4.90002 13.3909 6.34958 11.929 8.14136 11.929C8.49505 11.929 8.83472 11.9867 9.15274 12.0916V9.44469V8.49318C8.81731 8.4435 8.47594 8.4176 8.13075 8.4176C6.16955 8.4176 4.33531 9.23282 3.02417 10.7015C2.03317 11.8114 1.43874 13.2274 1.34703 14.7122C1.22687 16.6628 1.94061 18.517 3.32478 19.885C3.52816 20.0858 3.74173 20.2722 3.96507 20.4442C5.1518 21.3575 6.60264 21.8525 8.13075 21.8525C8.47594 21.8525 8.81731 21.8271 9.15274 21.7774C10.5802 21.5659 11.8973 20.9125 12.9367 19.885C14.2139 18.6227 14.9196 16.9468 14.9272 15.1631L14.9089 7.24191C15.5182 7.71193 16.1844 8.10086 16.8994 8.40274C18.0114 8.87192 19.1905 9.10969 20.404 9.10926V6.53581V5.5809C20.4049 5.58175 20.3947 5.58175 20.3938 5.58175Z" fill="black"/>
</g>
<defs>
<clipPath id="clip0_97_873">
<rect width="21.7391" height="21.7391" fill="white" transform="translate(0 0.130371)"/>
</clipPath>
</defs>
</svg>
