<svg width="50" height="50" viewBox="0 0 50 50" fill="none" xmlns="http://www.w3.org/2000/svg">
<path d="M29 5H21C13.28 5 7 11.28 7 19V25C7 30.425 10.125 35.34 15 37.655V44.34C15 44.92 15.725 45.22 16.135 44.81L21.945 39.005H29C36.72 39.005 43 32.725 43 25V19C43 11.28 36.72 5 29 5ZM34.24 31.2405L32.215 33.2205C30.085 35.3055 24.525 32.9255 19.625 27.9205C14.725 22.9105 12.575 17.3005 14.6 15.2155L16.625 13.2355C17.37 12.5055 18.635 12.5205 19.47 13.2655L22.39 16.2505C23.43 17.3155 22.99 19.1005 21.615 19.5105C20.665 19.8155 20.02 20.8605 20.325 21.8105C20.83 24.0305 23.645 26.8055 25.745 27.3555C26.69 27.5755 27.75 27.0605 28.08 26.1155C28.515 24.7505 30.31 24.3455 31.355 25.4155L34.27 28.3955C35 29.14 34.99 30.4055 34.24 31.2405ZM26.82 14.5C26.62 14.5 26.42 14.51 26.225 14.535C25.86 14.575 25.53 14.31 25.49 13.945C25.45 13.58 25.715 13.25 26.08 13.21C26.325 13.18 26.575 13.17 26.82 13.17C30.495 13.17 33.485 16.16 33.485 19.835C33.485 20.08 33.475 20.33 33.445 20.575C33.405 20.935 33.07 21.205 32.71 21.165C32.35 21.125 32.08 20.79 32.12 20.43C32.14 20.235 32.155 20.035 32.155 19.835C32.155 16.895 29.76 14.5 26.82 14.5ZM30.82 19.835C30.82 20.2 30.515 20.5 30.15 20.5C29.79 20.5 29.485 20.2 29.485 19.835C29.485 18.365 28.29 17.17 26.82 17.17C26.45 17.17 26.15 16.87 26.15 16.5C26.15 16.135 26.45 15.835 26.82 15.835C29.025 15.835 30.82 17.63 30.82 19.835ZM35.905 21.99C35.82 22.35 35.435 22.575 35.08 22.48C34.735 22.385 34.525 22.025 34.605 21.68C34.75 21.08 34.82 20.46 34.82 19.835C34.82 15.425 31.23 11.835 26.82 11.835C26.615 11.835 26.405 11.84 26.2 11.86C25.835 11.885 25.515 11.61 25.485 11.245C25.46 10.875 25.735 10.555 26.1 10.53C26.34 10.51 26.58 10.5 26.82 10.5C31.965 10.5 36.155 14.69 36.155 19.835C36.155 20.56 36.07 21.285 35.905 21.99Z" fill="#665CAC"/>
</svg>
