<svg width="40" height="40" viewBox="0 0 40 40" fill="none" xmlns="http://www.w3.org/2000/svg">
<path d="M20.005 0H19.995C8.9675 0 0 8.97 0 20C0 24.375 1.41 28.43 3.8075 31.7225L1.315 39.1525L9.0025 36.695C12.165 38.79 15.9375 40 20.005 40C31.0325 40 40 31.0275 40 20C40 8.9725 31.0325 0 20.005 0Z" fill="#4CAF50"/>
<path d="M31.6414 28.2425C31.1589 29.6049 29.2439 30.7349 27.7164 31.0649C26.6714 31.2874 25.3064 31.465 20.7114 29.56C14.8339 27.125 11.0489 21.1525 10.7539 20.765C10.4714 20.3775 8.37891 17.6025 8.37891 14.7325C8.37891 11.8625 9.83641 10.465 10.4239 9.86496C10.9064 9.37246 11.7039 9.14746 12.4689 9.14746C12.7164 9.14746 12.9389 9.15996 13.1389 9.16996C13.7264 9.19496 14.0214 9.22996 14.4089 10.1575C14.8914 11.32 16.0664 14.19 16.2064 14.485C16.3489 14.78 16.4914 15.18 16.2914 15.5675C16.1039 15.9675 15.9389 16.145 15.6439 16.485C15.3489 16.825 15.0689 17.085 14.7739 17.45C14.5039 17.7675 14.1989 18.1075 14.5389 18.695C14.8789 19.27 16.0539 21.1875 17.7839 22.7275C20.0164 24.715 21.8264 25.35 22.4739 25.62C22.9564 25.82 23.5314 25.7725 23.8839 25.3975C24.3314 24.915 24.8839 24.115 25.4464 23.3275C25.8464 22.7625 26.3514 22.6925 26.8814 22.8925C27.4214 23.08 30.2789 24.4925 30.8664 24.785C31.4539 25.08 31.8414 25.22 31.9839 25.4675C32.1239 25.715 32.1239 26.8775 31.6414 28.2425Z" fill="#FAFAFA"/>
</svg>
