<svg width="26" height="26" viewBox="0 0 26 26" fill="none" xmlns="http://www.w3.org/2000/svg">
<path d="M24.6725 6.90778C24.3917 5.86354 23.5683 5.04038 22.5243 4.7592C20.6168 4.2373 12.987 4.2373 12.987 4.2373C12.987 4.2373 5.35747 4.2373 3.45005 4.73941C2.42604 5.0203 1.58265 5.86369 1.30177 6.90778C0.799805 8.81505 0.799805 12.7705 0.799805 12.7705C0.799805 12.7705 0.799805 16.7458 1.30177 18.6332C1.58295 19.6773 2.40596 20.5004 3.4502 20.7816C5.37755 21.3036 12.9873 21.3036 12.9873 21.3036C12.9873 21.3036 20.6168 21.3036 22.5243 20.8015C23.5685 20.5205 24.3917 19.6973 24.6728 18.6532C25.1746 16.7458 25.1746 12.7906 25.1746 12.7906C25.1746 12.7906 25.1947 8.81505 24.6725 6.90778ZM10.5578 16.4246V9.11631L16.9024 12.7705L10.5578 16.4246Z" fill="white"/>
</svg>
