<svg width="29" height="30" viewBox="0 0 29 30" fill="none" xmlns="http://www.w3.org/2000/svg">
<path d="M27.2953 8.37803C26.99 7.24299 26.0951 6.34825 24.9602 6.04262C22.8869 5.47534 14.5936 5.47534 14.5936 5.47534C14.5936 5.47534 6.30066 5.47534 4.22738 6.02111C3.11433 6.32642 2.1976 7.24315 1.89229 8.37803C1.34668 10.4511 1.34668 14.7505 1.34668 14.7505C1.34668 14.7505 1.34668 19.0716 1.89229 21.123C2.19792 22.2579 3.0925 23.1526 4.22754 23.4583C6.32249 24.0257 14.594 24.0257 14.594 24.0257C14.594 24.0257 22.8869 24.0257 24.9602 23.4799C26.0953 23.1745 26.99 22.2797 27.2956 21.1448C27.8411 19.0716 27.8411 14.7724 27.8411 14.7724C27.8411 14.7724 27.8629 10.4511 27.2953 8.37803ZM11.9532 18.7224V10.7786L18.8495 14.7505L11.9532 18.7224Z" fill="#FF0000"/>
</svg>
