<svg width="790" height="790" viewBox="0 0 790 790" fill="none" xmlns="http://www.w3.org/2000/svg">
<path d="M789.5 405C789.5 617.354 617.354 789.5 405 789.5C192.647 789.5 20.5 617.354 20.5 405C20.5 192.647 192.647 20.5 405 20.5C617.354 20.5 789.5 192.647 789.5 405Z" stroke="#CDCDCD"/>
<path d="M779.5 395C779.5 607.354 607.354 779.5 395 779.5C182.647 779.5 10.5 607.354 10.5 395C10.5 182.647 182.647 10.5 395 10.5C607.354 10.5 779.5 182.647 779.5 395Z" stroke="#C1C1C1"/>
<path d="M769.5 385C769.5 597.354 597.354 769.5 385 769.5C172.647 769.5 0.5 597.354 0.5 385C0.5 172.647 172.647 0.5 385 0.5C597.354 0.5 769.5 172.647 769.5 385Z" stroke="#A0A0A0"/>
</svg>
